<svg width="22" height="22" viewBox="0 0 22 22" fill="none" xmlns="http://www.w3.org/2000/svg">
<path opacity="0.4" d="M19.4245 0.120117C20.0433 0.120117 20.6368 0.36595 21.0744 0.803535C21.512 1.24112 21.7578 1.83461 21.7578 2.45345V18.7868C21.7578 19.4056 21.512 19.9991 21.0744 20.4367C20.6368 20.8743 20.0433 21.1201 19.4245 21.1201H3.09115C2.47231 21.1201 1.87881 20.8743 1.44123 20.4367C1.00365 19.9991 0.757813 19.4056 0.757812 18.7868V2.45345C0.757812 1.83461 1.00365 1.24112 1.44123 0.803535C1.87881 0.36595 2.47231 0.120117 3.09115 0.120117H19.4245ZM18.8411 18.2034V12.0201C18.8411 11.0114 18.4404 10.044 17.7272 9.33075C17.0139 8.61749 16.0465 8.21678 15.0378 8.21678C14.0461 8.21678 12.8911 8.82345 12.3311 9.73345V8.43845H9.07615V18.2034H12.3311V12.4518C12.3311 11.5534 13.0545 10.8184 13.9528 10.8184C14.386 10.8184 14.8014 10.9905 15.1078 11.2968C15.4141 11.6032 15.5861 12.0186 15.5861 12.4518V18.2034H18.8411ZM5.28448 6.60678C5.8043 6.60678 6.30284 6.40028 6.67041 6.03271C7.03798 5.66514 7.24448 5.16661 7.24448 4.64678C7.24448 3.56178 6.36948 2.67512 5.28448 2.67512C4.76156 2.67512 4.26006 2.88285 3.8903 3.2526C3.52054 3.62236 3.31281 4.12387 3.31281 4.64678C3.31281 5.73178 4.19948 6.60678 5.28448 6.60678ZM6.90615 18.2034V8.43845H3.67448V18.2034H6.90615Z" fill="#2B306A"/>
</svg>
