<svg width="259" height="21" viewBox="0 0 259 21" fill="none" xmlns="http://www.w3.org/2000/svg">
<mask id="mask0_1141_51" style="mask-type:alpha" maskUnits="userSpaceOnUse" x="0" y="0" width="16" height="21">
<path fill-rule="evenodd" clip-rule="evenodd" d="M0 0H15.0616V20.9535H0V0Z" fill="white"/>
</mask>
<g mask="url(#mask0_1141_51)">
<path fill-rule="evenodd" clip-rule="evenodd" d="M8.49047 9.96799C11.7438 9.96799 13.5809 8.41261 13.5809 5.66121C13.5809 2.93388 11.7438 1.37792 8.49047 1.37792H1.47999V9.96799H8.49047ZM0 0H8.63743C12.78 0 15.0617 2.30693 15.0617 5.66134C15.0617 9.00929 12.78 11.3485 8.63743 11.3485H1.47953V20.9538H0V0Z" fill="#414141"/>
</g>
<path fill-rule="evenodd" clip-rule="evenodd" d="M20.9987 0H34.9064V1.37805H22.477V8.98052H32.7466V10.3868H22.477V19.5781H35.3789V20.9538H20.9987V0Z" fill="#414141"/>
<mask id="mask1_1141_51" style="mask-type:alpha" maskUnits="userSpaceOnUse" x="40" y="0" width="16" height="21">
<path fill-rule="evenodd" clip-rule="evenodd" d="M40.5576 0H55.6193V20.9535H40.5576V0Z" fill="white"/>
</mask>
<g mask="url(#mask1_1141_51)">
<path fill-rule="evenodd" clip-rule="evenodd" d="M49.0523 9.96897C52.3056 9.96897 54.1381 8.4136 54.1381 5.66219C54.1381 2.93486 52.3056 1.3789 49.0523 1.3789H42.0383V9.96897H49.0523ZM40.5576 0H49.1974C53.3423 0 55.6193 2.30693 55.6193 5.66134C55.6193 9.00929 53.3423 11.3485 49.1974 11.3485H42.0383V20.9538H40.5576V0Z" fill="#414141"/>
</g>
<mask id="mask2_1141_51" style="mask-type:alpha" maskUnits="userSpaceOnUse" x="60" y="0" width="16" height="21">
<path fill-rule="evenodd" clip-rule="evenodd" d="M60.6255 0H75.6848V20.9535H60.6255V0Z" fill="white"/>
</mask>
<g mask="url(#mask2_1141_51)">
<path fill-rule="evenodd" clip-rule="evenodd" d="M69.1109 9.96805C72.3677 9.96805 74.2019 8.41267 74.2019 5.66127C74.2019 2.93394 72.3677 1.37798 69.1109 1.37798H62.1004V9.96805H69.1109ZM60.6255 0H69.2629C73.4049 0 75.6848 2.30693 75.6848 5.66134C75.6848 9.00929 73.4049 11.3485 69.2629 11.3485H62.1015V20.9538H60.6255V0Z" fill="#414141"/>
</g>
<path fill-rule="evenodd" clip-rule="evenodd" d="M80.6923 0H94.5977V1.37805H82.1695V8.98052H92.4391V10.3868H82.1695V19.5781H95.0696V20.9538H80.6923V0Z" fill="#414141"/>
<path fill-rule="evenodd" clip-rule="evenodd" d="M109.157 9.79014C112.293 9.79014 114.127 8.29113 114.127 5.56791C114.127 2.90576 112.293 1.37798 109.157 1.37798H101.554V9.79014H109.157ZM100.075 0H109.274C113.328 0 115.605 2.24528 115.605 5.53921C115.605 8.50082 113.805 10.6598 110.491 11.0461L117.265 20.9538H115.55L108.801 11.1677H101.554V20.9538H100.075V0Z" fill="#414141"/>
<mask id="mask3_1141_51" style="mask-type:alpha" maskUnits="userSpaceOnUse" x="175" y="0" width="18" height="21">
<path fill-rule="evenodd" clip-rule="evenodd" d="M175.731 0.00109863H192.061V20.9664H175.731V0.00109863Z" fill="white"/>
</mask>
<g mask="url(#mask3_1141_51)">
<path fill-rule="evenodd" clip-rule="evenodd" d="M175.731 11.8094V0.00109863H177.185V11.8094C177.185 16.7573 179.777 19.5833 183.91 19.5833C188.046 19.5833 190.608 16.7873 190.608 11.8094V0.00109863H192.061V11.8094C192.061 17.786 188.625 20.9666 183.91 20.9666C179.138 20.9666 175.731 17.786 175.731 11.8094Z" fill="#414141"/>
</g>
<path fill-rule="evenodd" clip-rule="evenodd" d="M211.941 13.5709L206.73 1.93705L201.495 13.5709H211.941ZM206.055 0.00109863H207.406L216.704 20.9525H215.174L212.466 14.8819H200.967L198.258 20.9525H196.73L206.055 0.00109863Z" fill="#414141"/>
<path fill-rule="evenodd" clip-rule="evenodd" d="M230.128 9.79106C233.263 9.79106 235.098 8.29205 235.098 5.56883C235.098 2.90667 233.263 1.3789 230.128 1.3789H222.524V9.79106H230.128ZM221.045 0.00109863H230.249C234.303 0.00109863 236.581 2.24638 236.581 5.54031C236.581 8.50192 234.777 10.6609 231.461 11.0472L238.237 20.9543H236.522L229.775 11.1688H222.525V20.9543H221.045V0.00109863Z" fill="#414141"/>
<mask id="mask4_1141_51" style="mask-type:alpha" maskUnits="userSpaceOnUse" x="244" y="0" width="15" height="21">
<path fill-rule="evenodd" clip-rule="evenodd" d="M244.255 0.00109863H258.632V20.9549H244.255V0.00109863Z" fill="white"/>
</mask>
<g mask="url(#mask4_1141_51)">
<path fill-rule="evenodd" clip-rule="evenodd" d="M244.255 0.00109863H258.16V1.37915H245.736V8.98162H256.001V10.3879H245.736V19.5792H258.632V20.9549H244.255V0.00109863Z" fill="#414141"/>
</g>
<mask id="mask5_1141_51" style="mask-type:alpha" maskUnits="userSpaceOnUse" x="131" y="0" width="15" height="21">
<path fill-rule="evenodd" clip-rule="evenodd" d="M131.522 0H145.456V20.8879H131.522V0Z" fill="white"/>
</mask>
<g mask="url(#mask5_1141_51)">
<path fill-rule="evenodd" clip-rule="evenodd" d="M138.843 9.34985C135.561 8.39396 132.966 7.70347 132.966 5.04953C132.966 3.14597 134.533 1.38686 138.24 1.38686C140.61 1.38686 142.633 2.10612 144.257 3.2317V1.70275C142.663 0.665246 140.585 0 138.184 0C133.764 0 131.539 2.30928 131.539 5.02193C131.539 8.57128 134.361 9.55007 138.044 10.6204C141.292 11.544 144.002 12.2627 144.002 15.2331C144.002 17.8888 141.493 19.5329 138.126 19.5329C135.397 19.5329 132.971 18.5494 131.522 17.5348V19.1301C133.026 20.0695 135.468 20.888 138.24 20.888C142.037 20.888 145.456 18.958 145.456 15.2331C145.456 11.4014 142.037 10.2734 138.843 9.34985Z" fill="#414141"/>
</g>
<path fill-rule="evenodd" clip-rule="evenodd" d="M168.427 19.5369H157.556C155.628 19.4993 154.194 18.7683 152.871 17.7109C150.662 15.9441 150.653 13.0189 150.642 10.5006C150.639 9.72791 150.626 8.97576 150.682 8.20542C150.774 6.90722 151.089 5.5779 151.842 4.50047C152.381 3.72895 153.056 3.01145 153.953 2.54877C154.799 2.11369 155.697 1.8665 156.633 1.73322C157.631 1.59112 158.665 1.49953 159.673 1.47839C160.621 1.45843 161.582 1.49542 162.521 1.63281C162.788 1.67215 163.053 1.72558 163.314 1.79956C163.923 1.97277 164.539 2.20587 165.092 2.52059C165.803 2.92573 166.428 3.4935 166.938 4.13585C167.139 4.38891 167.323 4.65431 167.486 4.93379C168.251 6.23962 168.403 7.76857 168.424 9.25525C168.429 9.67448 168.427 10.0937 168.427 10.5129V11.7665V13.1939V14.6459V16.061V17.3545V18.419V19.1699V19.5169V19.5369ZM169.832 8.29317C169.772 6.96561 169.558 5.66095 168.922 4.48077C168.629 3.93707 168.331 3.34874 167.921 2.88724C167.641 2.57194 167.378 2.28834 167.052 2.02412C166.056 1.21972 164.779 0.687757 163.543 0.419427C162.178 0.122914 160.754 0.00489638 159.36 0.0277954C158.567 0.0407128 157.77 0.10119 156.983 0.196896C155.641 0.359538 154.275 0.677188 153.063 1.30427C152.055 1.82449 151.44 2.47212 150.792 3.35168C149.514 5.0873 149.247 7.32143 149.217 9.43049C149.169 12.6851 149.167 16.3472 151.725 18.741C152.314 19.2923 153.057 19.7873 153.794 20.1161C154.915 20.6158 156.076 20.9393 157.305 20.9393L169.846 20.9311V20.6205C169.846 20.3269 169.845 20.0345 169.845 19.7415C169.846 19.3129 169.847 18.8848 169.846 18.4562C169.843 17.9325 169.845 17.4087 169.847 16.885C169.849 16.2955 169.845 15.706 169.843 15.1159C169.842 14.5334 169.857 13.9657 169.856 13.3826C169.856 12.806 169.854 12.2306 169.858 11.654C169.867 10.5608 169.882 9.41522 169.832 8.29317Z" fill="#EB242A"/>
</svg>
