<svg width="23" height="20" viewBox="0 0 23 20" fill="none" xmlns="http://www.w3.org/2000/svg">
<path opacity="0.4" d="M22.7345 2.88484C22.8022 2.79151 22.7019 2.66901 22.5945 2.71101C21.8253 3.00934 21.0219 3.2104 20.2028 3.30951C21.1127 2.76602 21.818 1.93771 22.2095 0.95284C22.2492 0.852507 22.1395 0.762673 22.0462 0.815173C21.198 1.28301 20.2845 1.62017 19.3337 1.81501C19.3141 1.81894 19.2939 1.81779 19.2749 1.81166C19.2559 1.80553 19.2388 1.79464 19.2252 1.78001C18.5096 1.02503 17.5675 0.523875 16.5415 0.352489C15.5155 0.181103 14.4617 0.348828 13.5396 0.830245C12.6175 1.31166 11.8775 2.08053 11.4317 3.02034C10.9859 3.96015 10.8585 5.01967 11.069 6.03834C11.0728 6.05608 11.0724 6.07444 11.068 6.09202C11.0635 6.1096 11.0552 6.12593 11.0435 6.13978C11.0318 6.15362 11.017 6.16461 11.0004 6.1719C10.9838 6.17919 10.9658 6.18259 10.9477 6.18184C9.10137 6.06717 7.29796 5.5765 5.64807 4.73992C3.99819 3.90334 2.53661 2.73849 1.35301 1.31684C1.3412 1.30205 1.32589 1.29043 1.30847 1.28301C1.29106 1.2756 1.27207 1.27262 1.25322 1.27436C1.23437 1.27609 1.21624 1.28248 1.20047 1.29295C1.18469 1.30342 1.17177 1.31764 1.16285 1.33434C0.794489 2.03312 0.602259 2.81125 0.602848 3.60117C0.601355 4.38795 0.794434 5.16289 1.1649 5.857C1.53536 6.55111 2.0717 7.14284 2.72618 7.57951C2.0328 7.56066 1.35208 7.38938 0.732348 7.07784C0.653014 7.03701 0.557348 7.09417 0.560848 7.18284C0.607414 8.23412 0.988807 9.243 1.64935 10.0622C2.35117 10.9122 3.32501 11.4937 4.40618 11.7083C3.98998 11.835 3.55787 11.9018 3.12285 11.9067C2.88632 11.9038 2.6502 11.8863 2.41585 11.8542C2.32835 11.8425 2.25718 11.9242 2.28751 12.0058C2.62168 12.9104 3.22081 13.6932 4.0067 14.252C4.79259 14.8108 5.72871 15.1197 6.69285 15.1383C4.83122 16.6025 2.49362 17.3261 0.130348 17.1695C0.00668105 17.1613 -0.0504855 17.3258 0.0556812 17.3888C2.14543 18.6289 4.53119 19.2819 6.96118 19.2788C8.75739 19.2975 10.5393 18.9581 12.2029 18.2804C13.8664 17.6027 15.3783 16.6003 16.6502 15.3318C17.922 14.0633 18.9284 12.5541 19.6105 10.8924C20.2926 9.23061 20.6367 7.44959 20.6229 5.65334V5.09334C20.6229 5.07523 20.6271 5.05736 20.6352 5.04117C20.6433 5.02497 20.655 5.01087 20.6695 5.00001C21.4604 4.40297 22.1566 3.68987 22.7345 2.88484Z" fill="#2B306A"/>
</svg>
